<mxfile host="app.diagrams.net" modified="2021-01-21T18:54:01.352Z" agent="5.0 (Windows NT 10.0; Win64; x64) AppleWebKit/537.36 (KHTML, like Gecko) Chrome/87.0.4280.141 Safari/537.36" etag="daM48GicBc6bJ5qQ3EbI" version="14.2.5" type="github">
  <diagram id="o8dBvlKgWYoHPPMzc1Fn" name="Page-1">
    <mxGraphModel dx="1133" dy="695" grid="1" gridSize="10" guides="1" tooltips="1" connect="1" arrows="1" fold="1" page="1" pageScale="1" pageWidth="850" pageHeight="1100" math="0" shadow="0">
      <root>
        <mxCell id="0" />
        <mxCell id="1" parent="0" />
        <mxCell id="hP6FGa3Ma4oHVqpmFwx4-2" value="" style="rounded=0;whiteSpace=wrap;html=1;" vertex="1" parent="1">
          <mxGeometry x="315" y="155" width="90" height="130" as="geometry" />
        </mxCell>
        <mxCell id="hP6FGa3Ma4oHVqpmFwx4-38" value="" style="rounded=0;whiteSpace=wrap;html=1;fillColor=#bac8d3;strokeColor=none;" vertex="1" parent="1">
          <mxGeometry x="325" y="165" width="70" height="45" as="geometry" />
        </mxCell>
        <mxCell id="hP6FGa3Ma4oHVqpmFwx4-3" value="" style="rounded=0;whiteSpace=wrap;html=1;" vertex="1" parent="1">
          <mxGeometry x="75" y="156" width="210" height="130" as="geometry" />
        </mxCell>
        <mxCell id="hP6FGa3Ma4oHVqpmFwx4-35" value="" style="rounded=0;whiteSpace=wrap;html=1;fillColor=#bac8d3;strokeColor=none;" vertex="1" parent="1">
          <mxGeometry x="110" y="171" width="130" height="60" as="geometry" />
        </mxCell>
        <mxCell id="hP6FGa3Ma4oHVqpmFwx4-4" value="Service-A" style="rounded=0;whiteSpace=wrap;html=1;fillColor=#f0a30a;fontColor=#ffffff;strokeColor=none;" vertex="1" parent="1">
          <mxGeometry x="120" y="180" width="50" height="40" as="geometry" />
        </mxCell>
        <mxCell id="hP6FGa3Ma4oHVqpmFwx4-5" value="Service-B" style="rounded=0;whiteSpace=wrap;html=1;fillColor=#f0a30a;fontColor=#ffffff;strokeColor=none;" vertex="1" parent="1">
          <mxGeometry x="180" y="180" width="50" height="40" as="geometry" />
        </mxCell>
        <mxCell id="hP6FGa3Ma4oHVqpmFwx4-6" value="Service-C" style="rounded=0;whiteSpace=wrap;html=1;fillColor=#f0a30a;fontColor=#ffffff;strokeColor=none;" vertex="1" parent="1">
          <mxGeometry x="335.5" y="171" width="50" height="30" as="geometry" />
        </mxCell>
        <mxCell id="hP6FGa3Ma4oHVqpmFwx4-7" value="" style="endArrow=none;dashed=1;html=1;dashPattern=1 3;strokeWidth=2;fillColor=#f0a30a;strokeColor=#BD7000;" edge="1" parent="1">
          <mxGeometry width="50" height="50" relative="1" as="geometry">
            <mxPoint x="418" y="179.4999999999999" as="sourcePoint" />
            <mxPoint x="468" y="180" as="targetPoint" />
          </mxGeometry>
        </mxCell>
        <mxCell id="hP6FGa3Ma4oHVqpmFwx4-9" value="&lt;font style=&quot;font-size: 10px&quot;&gt;throttler&lt;/font&gt;" style="rounded=1;whiteSpace=wrap;html=1;fillColor=#008a00;strokeColor=#005700;fontColor=#ffffff;" vertex="1" parent="1">
          <mxGeometry x="170" y="230" width="40" height="20" as="geometry" />
        </mxCell>
        <mxCell id="hP6FGa3Ma4oHVqpmFwx4-13" value="&lt;b&gt;&lt;font style=&quot;font-size: 15px&quot;&gt;Network&lt;/font&gt;&lt;/b&gt;" style="ellipse;shape=cloud;whiteSpace=wrap;html=1;" vertex="1" parent="1">
          <mxGeometry x="110" y="380" width="450" height="100" as="geometry" />
        </mxCell>
        <mxCell id="hP6FGa3Ma4oHVqpmFwx4-14" value="" style="curved=1;endArrow=classic;html=1;startArrow=classic;startFill=1;entryX=0.5;entryY=1;entryDx=0;entryDy=0;exitX=0.25;exitY=0.25;exitDx=0;exitDy=0;exitPerimeter=0;fillColor=#60a917;strokeColor=#2D7600;" edge="1" parent="1" source="hP6FGa3Ma4oHVqpmFwx4-13" target="hP6FGa3Ma4oHVqpmFwx4-4">
          <mxGeometry width="50" height="50" relative="1" as="geometry">
            <mxPoint x="330" y="350" as="sourcePoint" />
            <mxPoint x="380" y="300" as="targetPoint" />
            <Array as="points">
              <mxPoint x="170" y="360" />
              <mxPoint x="190" y="220" />
            </Array>
          </mxGeometry>
        </mxCell>
        <mxCell id="hP6FGa3Ma4oHVqpmFwx4-15" value="" style="curved=1;endArrow=classic;html=1;startArrow=classic;startFill=1;entryX=0.75;entryY=1;entryDx=0;entryDy=0;exitX=0.4;exitY=0.1;exitDx=0;exitDy=0;exitPerimeter=0;fillColor=#60a917;strokeColor=#2D7600;" edge="1" parent="1" source="hP6FGa3Ma4oHVqpmFwx4-13" target="hP6FGa3Ma4oHVqpmFwx4-5">
          <mxGeometry width="50" height="50" relative="1" as="geometry">
            <mxPoint x="232.5" y="415" as="sourcePoint" />
            <mxPoint x="129" y="290" as="targetPoint" />
            <Array as="points">
              <mxPoint x="218" y="300" />
              <mxPoint x="190" y="260" />
            </Array>
          </mxGeometry>
        </mxCell>
        <mxCell id="hP6FGa3Ma4oHVqpmFwx4-18" value="Controller" style="whiteSpace=wrap;html=1;aspect=fixed;" vertex="1" parent="1">
          <mxGeometry x="330.5" y="530" width="55" height="55" as="geometry" />
        </mxCell>
        <mxCell id="hP6FGa3Ma4oHVqpmFwx4-19" value="" style="shape=umlActor;verticalLabelPosition=bottom;verticalAlign=top;html=1;outlineConnect=0;" vertex="1" parent="1">
          <mxGeometry x="343" y="627" width="30" height="60" as="geometry" />
        </mxCell>
        <mxCell id="hP6FGa3Ma4oHVqpmFwx4-20" value="" style="endArrow=classic;dashed=1;html=1;dashPattern=1 3;strokeWidth=2;startArrow=classic;startFill=1;endFill=1;entryX=0.5;entryY=1;entryDx=0;entryDy=0;exitX=0.5;exitY=0;exitDx=0;exitDy=0;exitPerimeter=0;" edge="1" parent="1" source="hP6FGa3Ma4oHVqpmFwx4-19" target="hP6FGa3Ma4oHVqpmFwx4-18">
          <mxGeometry width="50" height="50" relative="1" as="geometry">
            <mxPoint x="360" y="620" as="sourcePoint" />
            <mxPoint x="260" y="400" as="targetPoint" />
          </mxGeometry>
        </mxCell>
        <mxCell id="hP6FGa3Ma4oHVqpmFwx4-22" style="edgeStyle=orthogonalEdgeStyle;curved=1;rounded=0;orthogonalLoop=1;jettySize=auto;html=1;startArrow=classic;startFill=1;endArrow=classic;endFill=1;dashed=1;dashPattern=1 2;exitX=0.5;exitY=1;exitDx=0;exitDy=0;entryX=0.5;entryY=0;entryDx=0;entryDy=0;" edge="1" parent="1" source="hP6FGa3Ma4oHVqpmFwx4-9" target="hP6FGa3Ma4oHVqpmFwx4-18">
          <mxGeometry relative="1" as="geometry">
            <mxPoint x="410" y="530" as="targetPoint" />
            <mxPoint x="220" y="230" as="sourcePoint" />
            <Array as="points">
              <mxPoint x="190" y="370" />
              <mxPoint x="280" y="370" />
              <mxPoint x="280" y="440" />
              <mxPoint x="360" y="440" />
              <mxPoint x="360" y="470" />
              <mxPoint x="358" y="470" />
            </Array>
          </mxGeometry>
        </mxCell>
        <mxCell id="hP6FGa3Ma4oHVqpmFwx4-23" value="" style="endArrow=classic;startArrow=classic;html=1;strokeWidth=2;exitX=0.5;exitY=0;exitDx=0;exitDy=0;entryX=0.55;entryY=0.95;entryDx=0;entryDy=0;entryPerimeter=0;" edge="1" parent="1" source="hP6FGa3Ma4oHVqpmFwx4-18" target="hP6FGa3Ma4oHVqpmFwx4-13">
          <mxGeometry width="50" height="50" relative="1" as="geometry">
            <mxPoint x="210" y="450" as="sourcePoint" />
            <mxPoint x="260" y="400" as="targetPoint" />
          </mxGeometry>
        </mxCell>
        <mxCell id="hP6FGa3Ma4oHVqpmFwx4-24" style="edgeStyle=orthogonalEdgeStyle;curved=1;rounded=0;orthogonalLoop=1;jettySize=auto;html=1;startArrow=classic;startFill=1;endArrow=classic;endFill=1;dashed=1;dashPattern=1 2;entryX=0.5;entryY=0;entryDx=0;entryDy=0;exitX=0.75;exitY=1;exitDx=0;exitDy=0;" edge="1" parent="1" source="hP6FGa3Ma4oHVqpmFwx4-31" target="hP6FGa3Ma4oHVqpmFwx4-18">
          <mxGeometry relative="1" as="geometry">
            <mxPoint x="368" y="540" as="targetPoint" />
            <mxPoint x="345" y="250" as="sourcePoint" />
            <Array as="points">
              <mxPoint x="351" y="260" />
              <mxPoint x="355" y="260" />
              <mxPoint x="355" y="270" />
              <mxPoint x="368" y="270" />
              <mxPoint x="368" y="280" />
              <mxPoint x="380" y="280" />
              <mxPoint x="380" y="410" />
              <mxPoint x="368" y="410" />
              <mxPoint x="368" y="450" />
              <mxPoint x="358" y="450" />
            </Array>
          </mxGeometry>
        </mxCell>
        <mxCell id="hP6FGa3Ma4oHVqpmFwx4-26" value="" style="endArrow=classic;startArrow=classic;html=1;strokeWidth=1;fillColor=#008a00;strokeColor=#005700;" edge="1" parent="1">
          <mxGeometry width="50" height="50" relative="1" as="geometry">
            <mxPoint x="600" y="100" as="sourcePoint" />
            <mxPoint x="640" y="100" as="targetPoint" />
          </mxGeometry>
        </mxCell>
        <mxCell id="hP6FGa3Ma4oHVqpmFwx4-27" value="Data path" style="text;html=1;strokeColor=none;fillColor=none;align=center;verticalAlign=middle;whiteSpace=wrap;rounded=0;" vertex="1" parent="1">
          <mxGeometry x="660" y="90" width="60" height="20" as="geometry" />
        </mxCell>
        <mxCell id="hP6FGa3Ma4oHVqpmFwx4-28" value="" style="endArrow=classic;startArrow=classic;html=1;strokeWidth=1;fillColor=#008a00;dashed=1;dashPattern=1 2;" edge="1" parent="1">
          <mxGeometry width="50" height="50" relative="1" as="geometry">
            <mxPoint x="600" y="130" as="sourcePoint" />
            <mxPoint x="640" y="130" as="targetPoint" />
          </mxGeometry>
        </mxCell>
        <mxCell id="hP6FGa3Ma4oHVqpmFwx4-29" value="Control Path" style="text;html=1;strokeColor=none;fillColor=none;align=center;verticalAlign=middle;whiteSpace=wrap;rounded=0;" vertex="1" parent="1">
          <mxGeometry x="660" y="120" width="70" height="20" as="geometry" />
        </mxCell>
        <mxCell id="hP6FGa3Ma4oHVqpmFwx4-31" value="&lt;font style=&quot;font-size: 10px&quot;&gt;throttler&lt;/font&gt;" style="rounded=1;whiteSpace=wrap;html=1;fillColor=#008a00;strokeColor=#005700;fontColor=#ffffff;" vertex="1" parent="1">
          <mxGeometry x="325" y="211" width="35" height="20" as="geometry" />
        </mxCell>
        <mxCell id="hP6FGa3Ma4oHVqpmFwx4-36" value="server" style="text;html=1;strokeColor=none;fillColor=none;align=center;verticalAlign=middle;whiteSpace=wrap;rounded=0;" vertex="1" parent="1">
          <mxGeometry x="110" y="231" width="30" height="20" as="geometry" />
        </mxCell>
        <mxCell id="hP6FGa3Ma4oHVqpmFwx4-37" value="Machine" style="text;html=1;strokeColor=none;fillColor=none;align=center;verticalAlign=middle;whiteSpace=wrap;rounded=0;" vertex="1" parent="1">
          <mxGeometry x="80" y="136" width="40" height="20" as="geometry" />
        </mxCell>
        <mxCell id="hP6FGa3Ma4oHVqpmFwx4-16" value="" style="curved=1;endArrow=classic;html=1;startArrow=classic;startFill=1;entryX=0.75;entryY=1;entryDx=0;entryDy=0;exitX=0.625;exitY=0.2;exitDx=0;exitDy=0;exitPerimeter=0;fillColor=#60a917;strokeColor=#2D7600;" edge="1" parent="1" source="hP6FGa3Ma4oHVqpmFwx4-13" target="hP6FGa3Ma4oHVqpmFwx4-6">
          <mxGeometry width="50" height="50" relative="1" as="geometry">
            <mxPoint x="242.5" y="425" as="sourcePoint" />
            <mxPoint x="139" y="300" as="targetPoint" />
            <Array as="points">
              <mxPoint x="420" y="370" />
              <mxPoint x="300" y="270" />
            </Array>
          </mxGeometry>
        </mxCell>
        <mxCell id="hP6FGa3Ma4oHVqpmFwx4-39" value="server" style="text;html=1;strokeColor=none;fillColor=none;align=center;verticalAlign=middle;whiteSpace=wrap;rounded=0;" vertex="1" parent="1">
          <mxGeometry x="365" y="210" width="30" height="20" as="geometry" />
        </mxCell>
        <mxCell id="hP6FGa3Ma4oHVqpmFwx4-40" value="Machine" style="text;html=1;strokeColor=none;fillColor=none;align=center;verticalAlign=middle;whiteSpace=wrap;rounded=0;" vertex="1" parent="1">
          <mxGeometry x="318" y="135" width="40" height="20" as="geometry" />
        </mxCell>
        <mxCell id="hP6FGa3Ma4oHVqpmFwx4-41" value="" style="rounded=0;whiteSpace=wrap;html=1;" vertex="1" parent="1">
          <mxGeometry x="480" y="155" width="90" height="130" as="geometry" />
        </mxCell>
        <mxCell id="hP6FGa3Ma4oHVqpmFwx4-42" value="" style="rounded=0;whiteSpace=wrap;html=1;fillColor=#bac8d3;strokeColor=none;" vertex="1" parent="1">
          <mxGeometry x="490" y="165" width="70" height="45" as="geometry" />
        </mxCell>
        <mxCell id="hP6FGa3Ma4oHVqpmFwx4-43" value="Service-D" style="rounded=0;whiteSpace=wrap;html=1;fillColor=#f0a30a;fontColor=#ffffff;strokeColor=none;" vertex="1" parent="1">
          <mxGeometry x="500.5" y="171" width="50" height="30" as="geometry" />
        </mxCell>
        <mxCell id="hP6FGa3Ma4oHVqpmFwx4-44" value="&lt;font style=&quot;font-size: 10px&quot;&gt;throttler&lt;/font&gt;" style="rounded=1;whiteSpace=wrap;html=1;fillColor=#008a00;strokeColor=#005700;fontColor=#ffffff;" vertex="1" parent="1">
          <mxGeometry x="490" y="211" width="35" height="20" as="geometry" />
        </mxCell>
        <mxCell id="hP6FGa3Ma4oHVqpmFwx4-45" value="server" style="text;html=1;strokeColor=none;fillColor=none;align=center;verticalAlign=middle;whiteSpace=wrap;rounded=0;" vertex="1" parent="1">
          <mxGeometry x="530" y="210" width="30" height="20" as="geometry" />
        </mxCell>
        <mxCell id="hP6FGa3Ma4oHVqpmFwx4-46" value="Machine" style="text;html=1;strokeColor=none;fillColor=none;align=center;verticalAlign=middle;whiteSpace=wrap;rounded=0;" vertex="1" parent="1">
          <mxGeometry x="483" y="135" width="40" height="20" as="geometry" />
        </mxCell>
        <mxCell id="hP6FGa3Ma4oHVqpmFwx4-25" style="edgeStyle=orthogonalEdgeStyle;curved=1;rounded=0;orthogonalLoop=1;jettySize=auto;html=1;startArrow=classic;startFill=1;endArrow=classic;endFill=1;dashed=1;dashPattern=1 2;exitX=0.5;exitY=1;exitDx=0;exitDy=0;" edge="1" parent="1">
          <mxGeometry relative="1" as="geometry">
            <mxPoint x="360" y="530" as="targetPoint" />
            <mxPoint x="500" y="231.0000000000001" as="sourcePoint" />
            <Array as="points">
              <mxPoint x="500" y="410" />
              <mxPoint x="378" y="410" />
              <mxPoint x="378" y="440" />
              <mxPoint x="360" y="440" />
            </Array>
          </mxGeometry>
        </mxCell>
        <mxCell id="hP6FGa3Ma4oHVqpmFwx4-17" value="" style="curved=1;endArrow=classic;html=1;startArrow=classic;startFill=1;exitX=0.88;exitY=0.25;exitDx=0;exitDy=0;exitPerimeter=0;fillColor=#60a917;strokeColor=#2D7600;entryX=0.5;entryY=1;entryDx=0;entryDy=0;" edge="1" parent="1" source="hP6FGa3Ma4oHVqpmFwx4-13" target="hP6FGa3Ma4oHVqpmFwx4-43">
          <mxGeometry width="50" height="50" relative="1" as="geometry">
            <mxPoint x="401.25" y="410" as="sourcePoint" />
            <mxPoint x="540" y="210" as="targetPoint" />
            <Array as="points">
              <mxPoint x="510" y="370" />
              <mxPoint x="510" y="230" />
            </Array>
          </mxGeometry>
        </mxCell>
      </root>
    </mxGraphModel>
  </diagram>
</mxfile>
